<?xml version="1.0" standalone="no"?>
<!DOCTYPE svg PUBLIC "-//W3C//DTD SVG 20010904//EN"
 "http://www.w3.org/TR/2001/REC-SVG-20010904/DTD/svg10.dtd">
<svg version="1.0" xmlns="http://www.w3.org/2000/svg"
 width="1231.000000pt" height="1231.000000pt" viewBox="0 0 1231.000000 1231.000000"
 preserveAspectRatio="xMidYMid meet">
<metadata>
Created by potrace 1.14, written by Peter Selinger 2001-2017
</metadata>
<g transform="translate(0.000000,1231.000000) scale(0.100000,-0.100000)"
fill="#000000" stroke="none">
<path d="M4675 10970 c-33 -4 -89 -10 -125 -14 -36 -4 -96 -14 -135 -23 -38
-8 -78 -16 -88 -18 -10 -2 -26 -6 -35 -9 -9 -3 -28 -7 -42 -10 -203 -39 -585
-203 -800 -344 -365 -239 -664 -621 -824 -1053 -32 -87 -79 -251 -91 -318 -2
-14 -9 -49 -14 -77 -33 -172 -36 -529 -5 -699 41 -234 95 -397 192 -590 138
-272 372 -556 619 -753 45 -36 79 -64 102 -83 18 -16 276 -189 326 -219 159
-95 465 -244 665 -323 132 -52 314 -117 530 -190 60 -20 231 -82 255 -92 17
-8 86 -37 155 -65 428 -178 787 -407 1011 -645 80 -85 94 -102 144 -170 161
-219 260 -466 306 -765 23 -147 16 -540 -11 -650 -5 -19 -11 -51 -13 -70 -3
-19 -12 -64 -21 -100 -72 -276 -220 -562 -395 -760 -31 -36 -49 -65 -47 -76 2
-11 7 -41 10 -69 4 -27 18 -89 33 -137 30 -102 12 -102 173 5 333 222 616 514
820 846 32 53 60 101 61 106 1 6 13 27 25 47 13 21 24 40 24 43 0 2 14 33 31
67 143 295 223 651 223 993 0 101 -12 308 -19 327 -2 7 -6 31 -9 53 -13 121
-74 349 -131 490 -155 383 -380 683 -755 1006 -129 111 -401 295 -600 406
-304 168 -588 292 -1060 461 -821 294 -1264 550 -1551 894 -96 116 -185 272
-237 418 -24 65 -59 225 -68 306 -9 78 -10 281 -1 370 22 242 123 516 264 718
82 118 267 298 388 378 158 105 369 201 488 222 15 2 35 7 45 10 38 11 122 19
207 20 87 0 253 -11 278 -19 7 -2 31 -6 54 -9 23 -3 79 -15 125 -26 408 -101
707 -319 844 -615 64 -138 80 -221 109 -560 4 -38 8 -77 10 -85 2 -8 7 -35 10
-59 18 -128 88 -276 168 -359 190 -196 555 -133 714 123 145 232 103 589 -99
860 -91 122 -264 283 -413 386 -27 19 -52 37 -55 40 -13 16 -223 136 -327 187
-263 129 -613 234 -858 258 -27 3 -73 9 -102 13 -64 10 -397 10 -478 1z"/>
<path d="M7879 6639 c-63 -128 -169 -343 -235 -478 l-122 -246 20 -40 21 -39
75 153 76 153 102 -208 c56 -115 189 -384 294 -599 106 -214 239 -486 296
-602 57 -117 151 -309 208 -425 57 -117 173 -354 258 -525 l154 -313 -122
-242 c-187 -374 -378 -749 -404 -793 -64 -109 -198 -256 -285 -314 -22 -14
-42 -28 -45 -31 -25 -28 -201 -113 -310 -150 -185 -63 -326 -85 -525 -84 -393
2 -751 211 -941 551 -38 68 -99 221 -107 268 -3 17 -8 41 -11 55 -37 163 -19
391 46 589 20 58 113 255 236 499 112 222 204 415 204 430 2 85 -3 135 -11
126 -12 -11 -509 -1002 -562 -1119 -138 -302 -194 -582 -165 -820 12 -100 13
-108 25 -155 106 -408 402 -677 811 -738 60 -9 320 -8 392 1 193 25 486 130
693 250 72 41 201 124 221 142 7 5 31 25 55 44 81 63 254 245 300 316 42 63
197 363 458 883 51 100 94 182 96 182 2 0 35 -64 73 -142 39 -79 143 -291 232
-473 368 -750 359 -730 364 -796 10 -165 -66 -283 -218 -333 -48 -16 -123 -23
-299 -27 -73 -1 -89 -4 -97 -20 -6 -10 -10 -19 -10 -21 0 -2 466 -3 1035 -3
950 0 1035 1 1035 16 0 27 -21 36 -88 38 -35 1 -72 4 -83 6 -11 2 -46 6 -80 9
-85 8 -151 45 -239 135 -123 125 -224 279 -345 526 -59 121 -168 344 -243 495
-74 151 -190 388 -257 525 -175 357 -366 747 -565 1150 -95 193 -223 454 -285
580 -62 127 -177 361 -255 520 -167 341 -325 664 -513 1048 l-136 277 -54 0
-54 0 -114 -231z"/>
<path d="M2605 5373 c-78 -17 -175 -68 -239 -125 -50 -44 -136 -154 -136 -174
0 -4 -6 -15 -14 -23 -26 -31 -76 -182 -90 -273 -14 -90 -15 -279 -2 -363 18
-114 42 -221 72 -321 259 -862 1100 -1634 2039 -1874 83 -21 170 -41 195 -44
25 -3 56 -8 69 -11 170 -33 576 -26 821 15 30 6 73 12 95 15 74 11 349 83 445
117 l95 33 -4 35 c-2 19 -5 44 -7 55 -1 11 -3 44 -3 73 l-1 54 -47 -26 c-171
-96 -454 -194 -638 -221 -22 -4 -47 -8 -55 -10 -15 -4 -108 -15 -170 -21 -55
-5 -402 -5 -430 0 -14 3 -47 7 -75 11 -123 15 -323 64 -470 115 -390 136 -720
349 -956 615 -106 120 -225 329 -273 480 -22 71 -30 107 -51 220 -7 40 -7 207
1 274 20 182 107 361 246 507 134 140 170 216 172 359 0 104 -4 130 -33 204
-60 150 -198 265 -359 300 -52 11 -157 13 -197 4z"/>
</g>
</svg>
